# xmcd CD database file
#
# Track frame offsets:
#	150
#	16612
#	30491
#	41606
#	57455
#	72998
#	91167
#	102967
#	116663
#	157113
#	174108
#	193222
#	205508
#	224044
#	243186
#	255140
#	269128
#	288641
#	302446
#	303955
#
# Disc length: 4419 seconds
#
# Revision: 1
# Processed by: cddbd v1.5.1PL2 Copyright (c) Steve Scherf et al.
# Submitted via: CDex 1.51
#
DISCID=14114114
DTITLE=Tche guri - Rosa dos Ventos
DYEAR=2006
DGENRE=Country
TTITLE0=1
TTITLE1=2
TTITLE2=3
TTITLE3=4
TTITLE4=5
TTITLE5=6
TTITLE6=7
TTITLE7=8
TTITLE8=9
TTITLE9=10
TTITLE10=11
TTITLE11=12
TTITLE12=13
TTITLE13=14
TTITLE14=15
TTITLE15=16
TTITLE16=17
TTITLE17=18
TTITLE18=19
TTITLE19=20
EXTD=sdsf YEAR: 2006
EXTT0=
EXTT1=
EXTT2=
EXTT3=
EXTT4=
EXTT5=
EXTT6=
EXTT7=
EXTT8=
EXTT9=
EXTT10=
EXTT11=
EXTT12=
EXTT13=
EXTT14=
EXTT15=
EXTT16=
EXTT17=
EXTT18=
EXTT19=
PLAYORDER=
